
<svg width="688px" height="555px" viewBox="0 0 688 555" version="1.1" xmlns="http://www.w3.org/2000/svg" xmlns:xlink="http://www.w3.org/1999/xlink">
    <g id="Page-1" stroke="none" stroke-width="1" fill="none" fill-rule="evenodd">
        <g id="Desktop-HD" transform="translate(-95.000000, -337.000000)">
            <g id="relationship_2" transform="translate(95.000000, 337.790100)">
                <path d="M561.069009,39.7247084 L642.636402,423.469119 L217.330188,513.870745 L263.421004,97.4285648 L561.069009,39.7247084 Z" id="Rectangle" stroke="#979797" fill="#F95A2C" transform="translate(429.993254, 276.822056) rotate(12.000000) translate(-429.993254, -276.822056) "></path>
                <g id="Group-2" transform="translate(0.000000, 66.209900)">
                    <path d="M431,340.768543 C431,340.768543 503.568465,314.807828 513.378008,307.20777 C523.187551,299.62001 583.004841,275.122737 593.294399,279.525359 C603.583958,283.927982 609.528762,297.652358 607.657933,306.346922 C603.596266,325.285578 578.340077,344.69155 564.124239,349.586086 C549.908402,354.480621 499.162171,357.173846 484.441702,358.895542 C469.733541,360.60494 431,340.768543 431,340.768543 Z" id="Path" fill="#A7CCE9" fill-rule="nonzero"></path>
                    <path d="M500.478562,345.436494 C500.478562,345.436494 483.053146,348.276025 484.040422,359.909718 C485.015357,371.555392 491.482012,373.496337 497.06012,373.664073 C502.638228,373.831809 532.231816,375.497189 542.598211,376.779171 C552.976947,378.061154 566.675397,373.867753 567.872469,361.407361 C569.069541,348.94697 561.899451,343.543473 543.819965,342.237528 C525.75282,340.931583 500.478562,345.436494 500.478562,345.436494 Z" id="Path" fill="#45D62F" fill-rule="nonzero"></path>
                    <path d="M549.152535,342 C549.152535,342 560.242741,343.312031 560.971896,359.193859 C561.70105,375.075687 548,377 548,377" id="Path" stroke="#031F43" stroke-width="2" stroke-linecap="round" stroke-linejoin="round"></path>
                    <path d="M506,352 C506,352 501.518888,359.397094 505.971758,367" id="Path" stroke="#031F43" stroke-width="2" stroke-linecap="round" stroke-linejoin="round"></path>
                    <path d="M513,352 C513,352 508.518888,359.397094 512.971758,367" id="Path" stroke="#031F43" stroke-width="2" stroke-linecap="round" stroke-linejoin="round"></path>
                    <path d="M522,352 C522,352 517.518888,359.397094 521.971758,367" id="Path" stroke="#031F43" stroke-width="2" stroke-linecap="round" stroke-linejoin="round"></path>
                    <g id="Group" transform="translate(344.000000, 342.000000)">
                        <path d="M67.5214379,3.43649388 C67.5214379,3.43649388 84.9468538,6.27602542 83.9595781,17.9097179 C82.9723024,29.5434105 76.5179876,31.4963372 70.93988,31.6640733 C65.3617723,31.8318093 35.7681835,33.4971886 25.4017888,34.7791712 C15.0230531,36.0611538 1.32460291,31.8677527 0.127531132,19.4073612 C-1.06954064,6.94696958 6.10054905,1.54347285 24.1800351,0.237527963 C42.2471802,-1.06841692 67.5214379,3.43649388 67.5214379,3.43649388 Z" id="Path" fill="#45D62F" fill-rule="nonzero"></path>
                        <path d="M18.3057448,1.08818931 C18.3057448,1.08818931 6.66823257,2.34620962 5.90309392,17.5742459 C5.13795526,32.8022821 19.5151575,34.6473786 19.5151575,34.6473786" id="Path" stroke="#031F43" stroke-width="2" stroke-linecap="round" stroke-linejoin="round"></path>
                        <path d="M62.227172,11.1164083 C62.227172,11.1164083 68.1014623,18.4368884 62.2641948,25.9610479" id="Path" stroke="#031F43" stroke-width="2" stroke-linecap="round" stroke-linejoin="round"></path>
                        <path d="M54.5757854,10.7809362 C54.5757854,10.7809362 60.4500758,18.1014163 54.6128082,25.6255758" id="Path" stroke="#031F43" stroke-width="2" stroke-linecap="round" stroke-linejoin="round"></path>
                        <path d="M46.2086239,10.6970682 C46.2086239,10.6970682 52.0829143,18.0175483 46.2456468,25.5417078" id="Path" stroke="#031F43" stroke-width="2" stroke-linecap="round" stroke-linejoin="round"></path>
                    </g>
                    <path d="M359.235647,282 C359.235647,282 345.067307,282 340.172789,296.520937 C335.278272,311.041875 337.240985,322.362027 360.940755,340.825245 C384.640524,359.288462 427.648491,372.585933 446.220671,376.76302 C464.79285,380.952465 490.443066,384.832954 490.197727,383.844294 C489.952388,382.855635 491.96417,375.712569 493.730612,365.047404 C494.797838,358.633475 496,343.976597 496,343.976597 C496,343.976597 428.875187,325.562812 424.728954,314.724632 C420.570454,303.89881 414.952186,295.51992 406.892792,292.071969 C398.821132,288.648736 358.744969,282.976301 359.235647,282 Z" id="Path" fill="#A7CCE9" fill-rule="nonzero"></path>
                    <path d="M373,197.955756 C373,197.955756 411.616044,153.294071 422.88365,153.294071 C434.151255,153.294071 512.228414,152.117786 520.385181,154.470356 C528.541947,156.822926 573,195.75177 573,195.75177 L545.945499,242.332656 L537.433558,233.207161 L519.601347,302.533686 C519.601347,302.533686 470.26883,310 455.902633,310 C441.524189,310 420.556644,298.224768 420.556644,298.224768 L410.207593,229.566868 L394.053276,244.227094 L373,197.955756 Z" id="Path" fill="#E72A8B" fill-rule="nonzero"></path>
                    <path d="M439.21804,299.282805 C439.21804,299.282805 445.855718,298.845958 450.935951,300.156499 C456.016185,301.454905 458.673728,306.017528 458.673728,306.017528 L485.6447,305.580681 C485.6447,305.580681 490.29231,299.719652 497.362611,299.064382 C504.432912,298.409111 513.50564,302.971735 513.50564,302.971735 C513.50564,302.971735 518.808366,322.945346 513.950624,327.495835 C509.080522,332.058458 498.697563,330.323205 495.150052,330.966341 C491.614902,331.621611 446.943456,334 446.943456,334 C446.943456,334 430.577935,330.311071 429.255344,321.841094 C427.932753,313.371118 432.135379,303.178023 433.012986,302.30433 C433.915315,301.454905 439.21804,299.282805 439.21804,299.282805 Z" id="Path" fill="#031F43" fill-rule="nonzero"></path>
                    <path d="M18,254 C19.5153094,254.509008 65.9478401,332.325149 74.5345936,340.978284 C83.1213471,349.631418 105.321246,366.925274 127.028362,372.002938 C148.735478,377.080603 195.168009,376.58401 203.754762,374.547978 C212.341516,372.511946 279.976059,277.910958 277.955646,270.275839 C275.935234,262.64072 233.543528,254.509008 213.351722,255.527024 C193.159916,256.54504 108.869288,275.365919 90.1927912,268.239807 C71.5162943,261.113696 18,254 18,254 Z" id="Path" fill="#347CE1" fill-rule="nonzero"></path>
                    <path d="M134.885684,99.2761731 C134.885684,99.2761731 142.781649,109.748335 158.573579,107.541701 C174.365509,105.335067 186.067797,93.7658211 190.157439,86.048835 C194.247081,78.3318489 195.331082,63.1846145 195.331082,63.1846145 C195.331082,63.1846145 244.874875,60.7037094 264.485446,73.9310475 C284.0837,87.1583855 305,143.408856 305,143.408856 L256.589482,170.636478 L266.665768,249.713768 L239.98455,269 L123.195714,268.725729 L90.2568528,233.157779 L88.2982593,226.375807 C88.2982593,226.375807 72.2722836,172.020299 72,139.232458 C71.7302828,106.444617 114.47443,81.9223045 114.47443,81.9223045 L134.885684,99.2761731 Z" id="Path" stroke="#031F43" stroke-width="2" fill="#F3B63F" fill-rule="nonzero" stroke-linecap="round" stroke-linejoin="round"></path>
                    <g id="Group" transform="translate(51.000000, 333.000000)">
                        <path d="M77.1590049,4.01630461 C77.1590049,4.01630461 97.0718732,7.3393636 95.9546901,20.9736792 C94.837507,34.6079947 87.4591877,36.8925978 81.0752842,37.0880718 C74.6913806,37.2835459 40.8812453,39.2382865 29.0341936,40.7409933 C17.1748651,42.2437001 1.52202465,37.3324144 0.147030043,22.7329457 C-1.22796457,8.13347696 6.97289614,1.80500432 27.6223687,0.277863242 C48.2718414,-1.24927784 77.1590049,4.01630461 77.1590049,4.01630461 Z" id="Path" fill="#45D62F" fill-rule="nonzero"></path>
                        <path d="M20.91927,1.26745066 C20.91927,1.26745066 7.62356323,2.7335061 6.75191486,20.5705139 C5.88026649,38.4075217 22.3065414,40.5699535 22.3065414,40.5699535" id="Path" stroke="#031F43" stroke-width="2" stroke-linecap="round" stroke-linejoin="round"></path>
                        <path d="M71.1065733,13.0081113 C71.1065733,13.0081113 77.8219487,21.5845356 71.1556802,30.4053025" id="Path" stroke="#031F43" stroke-width="2" stroke-linecap="round" stroke-linejoin="round"></path>
                        <path d="M62.3532594,12.6171632 C62.3532594,12.6171632 69.0686348,21.1935875 62.4023663,30.0143544" id="Path" stroke="#031F43" stroke-width="2" stroke-linecap="round" stroke-linejoin="round"></path>
                        <path d="M52.8019575,12.5194261 C52.8019575,12.5194261 59.517333,21.0958505 52.8510645,29.9166173" id="Path" stroke="#031F43" stroke-width="2" stroke-linecap="round" stroke-linejoin="round"></path>
                    </g>
                    <path d="M494,157.19843 C494,176.628562 482.360748,195 468,195 C453.639252,195 442,176.628562 442,157.19843 C442,137.768299 453.639252,122 468,122 C482.360748,122 494,137.755844 494,157.19843 Z" id="Path" stroke="#031F43" stroke-width="2" fill="#FFFFFF" fill-rule="nonzero" stroke-linecap="round" stroke-linejoin="round"></path>
                    <path d="M450.368189,112 C450.368189,112 424.123711,123.908607 428.072533,146.288363 C433.479381,176.883942 418,187.81359 418,187.81359 C418,187.81359 421.778719,195.385035 438.558174,199.300873 C446.844624,201.234008 451,198.544967 451,198.544967 C451,198.544967 447.768041,180.812171 445.532401,172.74505 C438.728277,148.159538 450.368189,112 450.368189,112 Z" id="Path" fill="#031F43" fill-rule="nonzero"></path>
                    <path d="M490.56705,151.044015 C490.85175,143.94336 483.783743,136.81805 476.653844,137.138565 C473.856349,137.261841 470.637992,137.841234 467.02353,139.184935 C452.590436,144.547409 437.055674,135.326419 437.055674,135.326419 C437.055674,135.326419 435.63217,123.220788 447.181121,109.968697 C460.227845,95.0154072 495.58026,99.6875398 507.426289,117.118662 C520.076908,135.733227 513.603059,146.076022 525.251036,162.545597 C541.565631,185.598072 537.567441,199.602142 537.567441,199.602142 C537.567441,199.602142 517.650762,204.976944 506.126568,210.795536 C488.735062,219.572735 484.452171,199.306282 484.452171,199.306282 L490.56705,151.044015 Z" id="Path" fill="#031F43" fill-rule="nonzero"></path>
                    <path d="M459.324578,157 C458.707317,159.859936 457,165.423099 457,165.423099 C457,165.423099 461.21576,167.943499 464,166.611474" id="Path" stroke="#031F43" stroke-width="2" stroke-linecap="round" stroke-linejoin="round"></path>
                    <path d="M463,177 C463,177 467.524483,176.77303 470.540805,174.843787 C473.557127,172.900359 474,170.900188 474,170.900188 C474,170.900188 471.833515,166.431721 469.571273,168.587934 C467.309032,170.744146 468.517954,173.879166 468.517954,173.879166" id="Path" stroke="#031F43" stroke-width="2" stroke-linecap="round" stroke-linejoin="round"></path>
                    <circle id="Oval" fill="#031F43" fill-rule="nonzero" cx="476" cy="153" r="2"></circle>
                    <circle id="Oval" fill="#031F43" fill-rule="nonzero" cx="453" cy="153" r="2"></circle>
                    <path d="M376.571655,206 C376.571655,206 357.292128,226.047571 347.159911,238.424445 C338.726657,248.713802 333.728261,258.533776 334.011422,266.118008 C334.196091,270.960059 364.838967,289.858878 387.25788,296.739036 C409.676794,303.606843 417.149765,305.484372 416.841982,307.991863 C416.534199,310.487001 415.192265,325.161378 419.365803,329.731681 C423.53934,334.301984 432.391179,333.919066 432.391179,333.919066 C432.391179,333.919066 448.802169,337.13063 449.713206,335.574257 C451.387546,332.720906 445.281131,330.373994 443.015848,329.361116 C440.750565,328.348238 433.536132,322.258618 433.536132,322.258618 L433.79467,307.164267 C433.79467,307.164267 439.987264,313.130365 443.532924,312.623926 C447.078584,312.117487 445.182641,307.300141 442.646509,300.185292 C440.122688,293.082794 436.700141,286.733779 433.671556,286.993175 C430.642972,287.25257 427.983727,288.38897 426.469434,287.499614 C424.955142,286.610258 400.160144,278.235487 392.699484,270.367155 C385.238824,262.498823 379.255522,254.445208 379.255522,254.445208 L392.564059,240.796061" id="Path" stroke="#031F43" stroke-width="2" fill="#FFFFFF" fill-rule="nonzero" stroke-linecap="round" stroke-linejoin="round"></path>
                    <path d="M547.084155,239.720524 L563.614174,255.799906 C563.614174,255.799906 555.675821,265.810659 545.974758,271.593268 C536.273696,277.375877 517.746762,289.612623 514.443223,289.612623 C511.139685,289.612623 503.423211,289.164937 502.757572,292.721552 C502.091934,296.278167 498.566516,305.182141 496.803807,307.184292 C495.041098,309.186442 496.803807,313.414586 498.788395,314.086115 C500.772984,314.757644 507.614267,308.751192 507.614267,308.751192 C507.614267,308.751192 509.820735,321.435624 508.501785,323.661618 C507.182834,325.887611 505.198246,330.774848 503.213658,330.774848 C501.229069,330.774848 494.387786,330.327162 493.290716,332.10547 C492.193645,333.883777 491.528007,337.21655 492.403198,337.664236 C493.290716,338.111921 506.517196,338.111921 508.501785,337.664236 C510.486373,337.21655 512.249082,335.662085 512.249082,335.662085 C512.249082,335.662085 515.996379,337.664236 519.521797,335.662085 C523.047215,333.659935 526.141201,328.548855 526.141201,328.548855 L527.90391,309.198878 C527.90391,309.198878 571.121096,294.077045 581.487796,289.401216 C591.854497,284.725386 604.19346,274.49079 607.731205,266.929874 C611.268949,259.368957 578.923856,217.895839 567.238205,205" id="Path" stroke="#031F43" stroke-width="2" fill="#FFFFFF" fill-rule="nonzero" stroke-linecap="round" stroke-linejoin="round"></path>
                    <path d="M446,151 C446,151 450.12098,145.222426 455,144" id="Path" stroke="#031F43" stroke-width="2" stroke-linecap="round" stroke-linejoin="round"></path>
                    <path d="M470,146.75596 C470,146.75596 476.105882,145.28596 480,146.86596" id="Path" stroke="#031F43" stroke-width="2" stroke-linecap="round" stroke-linejoin="round"></path>
                    <path d="M150.028622,190.634286 L150.028622,187.674998 C150.028622,187.674998 153.748282,189.364205 157.021056,188.513251 C160.293831,187.674998 160.740716,184.296583 158.992607,183.026503 C157.244499,181.756422 155.272948,172.688046 150.041766,174.161339 C144.797441,175.634633 140,194 140,194 L150.028622,190.634286 Z" id="Path" stroke="#031F43" stroke-width="2" fill="#FFFFFF" fill-rule="nonzero" stroke-linecap="round" stroke-linejoin="round"></path>
                    <path d="M221.806521,176.413594 L257.094267,180.382415 L252.328323,168.775485 L299.654401,145 C299.654401,145 307.778732,182.366825 306.939136,200.201559 C306.099539,218.036293 289.011281,226.52308 278.936123,227.945865 C268.848618,229.35617 221.250905,202.747595 217.880172,202.18597 C214.534133,201.611864 221.806521,176.413594 221.806521,176.413594 Z" id="Path" stroke="#031F43" stroke-width="2" fill="#FFFFFF" fill-rule="nonzero" stroke-linecap="round" stroke-linejoin="round"></path>
                    <path d="M257,182.001813 C257,182.001813 276.792285,181.725344 286,188" id="Path" stroke="#031F43" stroke-width="2" stroke-linecap="round" stroke-linejoin="round"></path>
                    <path d="M201.056577,166 L129,198.362025 L139.868114,218 C139.868114,218 167.689993,205.639841 168.612061,204.002333 C169.53413,202.364824 174.5133,198.362025 178.74252,195.996734 C182.984035,193.631444 198.093664,193.267553 198.093664,193.267553 C198.093664,193.267553 210.621501,187.081409 210.990328,181.817122 C211.359156,176.552834 201.056577,166 201.056577,166 Z" id="Path" fill="#031F43" fill-rule="nonzero"></path>
                    <path d="M183.54749,329.007991 C183.54749,326.964748 225.238585,275.92106 251.349151,253.457851 C277.459717,230.994641 321.663801,200.37092 341.252855,214.661159 C360.841908,228.951399 349.294419,268.258901 340.750257,282.038329 C332.206095,295.817758 275.461584,350.947931 266.414825,356.056037 C257.380324,361.164144 172.380013,373 172.380013,373 L172,344.307392 L183.54749,329.007991 Z" id="Path" fill="#347CE1" fill-rule="nonzero"></path>
                    <path d="M166.986083,314 C166.986083,314 181.377838,326.738959 195.769594,331.739996 C210.161349,336.741033 234,342.662658 234,342.662658 L202.953171,374 C202.953171,374 153.492275,352.216877 145.39845,344.031101 C137.304625,335.845324 166.986083,314 166.986083,314 Z" id="Path" stroke="#031F43" stroke-width="2" fill="#FFFFFF" fill-rule="nonzero" stroke-linecap="round" stroke-linejoin="round"></path>
                    <path d="M188.05438,172.928403 C188.05438,172.928403 188.864442,168.567917 187.649349,166.693783 C186.434257,164.819649 182.555781,160.883966 186.225605,157.560501 C189.895429,154.237036 197.235077,156.735882 199.076126,160.259255 C200.917175,163.795122 202.340919,166.069071 204.169694,165.03205 C206.010743,163.995029 211.104312,160.671564 213.54677,163.370318 C215.989228,166.069071 218.848991,170.429558 220.272735,170.841867 C221.696479,171.254177 225.979986,175.614663 226.397291,177.688705 C226.814595,179.762747 226.802322,184.123233 227.624657,187.234296 C228.446992,190.345359 227.833309,198.44162 226.605943,200.528156 C225.378577,202.614693 211.104312,211.323171 208.858232,211.947882 C206.612153,212.572594 201.10128,207.374994 201.10128,207.374994 C201.10128,207.374994 197.627834,207.587396 195.590407,205.925663 C193.552979,204.263931 192.325613,202.189889 192.325613,202.189889 C192.325613,202.189889 189.465851,203.014508 187.428423,200.315754 C185.390996,197.617001 191.098247,195.130649 194.154389,193.044113 C197.21053,190.957577 205.581165,182.449006 205.581165,182.449006 C205.581165,182.449006 191.503278,190.132957 187.637076,191.38238 C183.770873,192.631803 182.543507,189.308338 183.144916,187.646606 C183.758599,185.984873 201.089006,174.565148 201.702689,172.903415 C202.316372,171.241682 200.683975,168.755331 199.260231,169.57995 C197.84876,170.442052 188.05438,172.928403 188.05438,172.928403 Z" id="Path" stroke="#031F43" stroke-width="2" fill="#FFFFFF" fill-rule="nonzero" stroke-linecap="round" stroke-linejoin="round"></path>
                    <path d="M139.438423,210.575831 C139.438423,210.575831 147.726865,205.345466 153.252493,203.884958 C158.790455,202.436934 166.166181,198.704525 165.549482,195.795993 C164.932782,192.887461 149.56463,193.511609 141.152848,197.668439 C132.7534,201.812785 117.989613,207.205429 113.06835,212.610555 C108.147088,218.003198 94,238.537686 94,238.537686 L115.313136,257 C115.313136,257 154.461224,244.14254 156.928022,241.021797 C159.39482,237.901054 157.335044,234.593067 157.335044,234.593067 C157.335044,234.593067 166.560869,230.860659 167.374913,226.703829 C168.188956,222.559483 166.560869,220.062889 166.560869,220.062889 C166.560869,220.062889 169.225011,216.530208 169.225011,214.258307 C169.225011,211.973923 173.122552,207.617367 171.679475,204.921045 C170.236398,202.224723 166.758213,202.636661 164.710771,204.097169 C162.663328,205.545193 157.125366,210.113961 153.030481,211.150047 C148.94793,212.186134 139.438423,210.575831 139.438423,210.575831 Z" id="Path" stroke="#031F43" stroke-width="2" fill="#FFFFFF" fill-rule="nonzero" stroke-linecap="round" stroke-linejoin="round"></path>
                    <path d="M178,321.482075 C178,321.482075 92.2945557,221.179341 64.2317111,204.80364 C36.1688665,188.427938 14.6140573,184.33089 4.58287489,199.170199 C-5.43607443,214.009507 1.07196102,240.627829 23.1283293,264.160874 C45.1846976,287.70641 152.432718,366 152.432718,366 L178,321.482075 Z" id="Path" fill="#347CE1" fill-rule="nonzero"></path>
                    <g id="Group" transform="translate(195.000000, 336.000000)">
                        <path d="M18.8409951,4.21222191 C18.8409951,4.21222191 -1.07187323,7.69738134 0.0453098892,21.9967855 C1.16249301,36.2961896 8.54081229,38.6922367 14.9247158,38.8972461 C21.3086194,39.1022555 55.1187547,41.1523492 66.9658064,42.7283588 C78.8128582,44.3043684 94.4779753,39.1535078 95.85297,23.8418699 C97.2279646,8.53023193 89.0271039,1.89305331 68.3776313,0.291417546 C47.7281586,-1.31021822 18.8409951,4.21222191 18.8409951,4.21222191 Z" id="Path" fill="#45D62F" fill-rule="nonzero"></path>
                        <path d="M75.08073,1.32927752 C75.08073,1.32927752 88.3764368,2.86684786 89.2480851,21.5739536 C90.1197335,40.2810594 73.6934586,42.5489756 73.6934586,42.5489756" id="Path" stroke="#031F43" stroke-width="2" stroke-linecap="round" stroke-linejoin="round"></path>
                        <path d="M24.8934267,13.6426533 C24.8934267,13.6426533 18.1780513,22.6374398 24.8443198,31.888488" id="Path" stroke="#031F43" stroke-width="2" stroke-linecap="round" stroke-linejoin="round"></path>
                        <path d="M33.6467406,13.2454476 C33.6467406,13.2454476 26.9313652,22.2402341 33.5976337,31.4912823" id="Path" stroke="#031F43" stroke-width="2" stroke-linecap="round" stroke-linejoin="round"></path>
                        <path d="M43.2103192,13.1429429 C43.2103192,13.1429429 36.4949438,22.1377294 43.1612123,31.3887776" id="Path" stroke="#031F43" stroke-width="2" stroke-linecap="round" stroke-linejoin="round"></path>
                    </g>
                    <path d="M179,318.449981 L152.302079,366 C152.302079,366 46.4865537,290.773083 27,270" id="Path" stroke="#031F43" stroke-width="2" stroke-linecap="round" stroke-linejoin="round"></path>
                    <path d="M185,323 C186.001264,322.667584 237.671443,258.917584 273,238" id="Path" stroke="#031F43" stroke-width="2" stroke-linecap="round" stroke-linejoin="round"></path>
                    <path d="M495,343.533367 C495,343.533367 493.988178,354.095334 492.717232,364.920723 C491.446285,375.746111 489.163517,384 489.163517,384 C489.163517,384 377.863146,370.339689 352,334" id="Path-2" stroke="#031F43" stroke-width="2" stroke-linecap="round" stroke-linejoin="round"></path>
                    <path d="M194,63.4043602 L168.290023,64.8376128 L163.708529,54.3686372 C163.708529,54.3686372 167.339607,54.3686372 168.314393,51.7389302 C169.289178,49.1092232 169.374472,47.750749 167.875739,41.4195113 C166.377006,35.0882737 165.40222,32.8199956 162.916516,32.6330496 C160.442997,32.4461036 158.493425,33.4431489 158.493425,33.4431489 C158.493425,33.4431489 140.971649,16.9669754 133.270841,18.0512621 C125.570033,19.1355489 107.073471,30.9006834 107.073471,30.9006834 L93,43.9370507 C93,43.9370507 108.48691,81.7749198 111.849922,86.7476833 C115.212933,91.7204467 126.983472,101.865383 133.526722,102.500999 C140.069972,103.136615 140.21619,102.338979 140.21619,102.338979 C140.21619,102.338979 147.782965,108.059527 157.884184,106.825683 C170.276149,105.305189 178.269393,97.9644429 182.25383,94.2504492 C186.238268,90.5364554 190.23489,83.9684195 191.806732,78.422355 C193.451683,72.6145662 194,63.4043602 194,63.4043602 Z" id="Path" fill="#FFFFFF" fill-rule="nonzero"></path>
                    <path d="M90,40 C90,40 104.177746,75.9005258 110.051902,84.8045487 C115.926058,93.7085717 128.351226,105.518769 139.38642,102.526028 C150.421614,99.5332867 156.005688,90.3571964 158,80.7853717" id="Path" stroke="#031F43" stroke-width="2" stroke-linecap="round" stroke-linejoin="round"></path>
                    <path d="M158,34.6143695 C158,34.6143695 161.73362,30.998835 164.084855,34.5892616 C166.43609,38.1796882 168.940924,50.0054988 166.684211,52.6669338 C164.427497,55.3283689 162.477981,54.8638732 162.477981,54.8638732 L169,72" id="Path" stroke="#031F43" stroke-width="2" stroke-linecap="round" stroke-linejoin="round"></path>
                    <path d="M167,64.7910195 C167,64.7910195 189.003562,64.1110195 195,64.2210195" id="Path" stroke="#031F43" stroke-width="2" stroke-linecap="round" stroke-linejoin="round"></path>
                    <path d="M161,33.098561 C161,33.098561 159.814928,42.2260557 155.942066,43.6659212 C152.069203,45.1183071 146.143845,38.8830638 143.101754,34.9015229 C140.059663,30.919982 136.907617,21.9552547 122.1492,31.7212984 C107.403,41.4748216 99.8160984,45.7944179 92.8400585,44.8804163 C84.5934264,43.8036474 82.0644593,34.9390846 81.1481668,28.916691 C80.2929605,23.2448733 83.3961376,8.04490268 83.9214786,8.12002609 C84.4468196,8.1951495 91.7527248,12.5523075 98.5210718,10.649181 C105.289419,8.7585751 131.128866,-3.73695265 141.122562,1.10850751 C151.116259,5.95396767 153.865136,14.4429134 155.929848,19.7641552 C157.970126,25.0728764 161,33.098561 161,33.098561 Z" id="Path" fill="#031F43" fill-rule="nonzero"></path>
                    <circle id="Oval" fill="#031F43" fill-rule="nonzero" cx="133" cy="55" r="2"></circle>
                    <circle id="Oval" fill="#031F43" fill-rule="nonzero" cx="109" cy="65" r="2"></circle>
                    <line x1="133" y1="41" x2="127" y2="51" id="Path" stroke="#031F43" stroke-width="2" stroke-linecap="round" stroke-linejoin="round"></line>
                    <path d="M112,56.275 C112,56.275 101.787807,56.485 103.119832,56.725" id="Path" stroke="#031F43" stroke-width="2" stroke-linecap="round" stroke-linejoin="round"></path>
                    <path d="M122,66 C122,66 124.091743,70.5393886 124.174312,73.6783274 C124.270642,76.8172663 124.243119,78.9541594 124.243119,78.9541594 C124.243119,78.9541594 127.215596,79.4008545 131,77.5054183" id="Path" stroke="#031F43" stroke-width="2" stroke-linecap="round" stroke-linejoin="round"></path>
                    <path d="M133,84 C133,84 136.996634,83.2614743 140.708677,80.4075104 C144.420721,77.5535466 146.239622,75 146.239622,75 C146.239622,75 148.813306,78.9429764 147.736813,81.3588317 C146.660321,83.7746871 142.96065,81.3588317 142.96065,81.3588317" id="Path-3" stroke="#031F43" stroke-width="2" stroke-linecap="round" stroke-linejoin="round"></path>
                </g>
            </g>
        </g>
    </g>
</svg>