
<svg width="289px" height="764px" viewBox="0 0 289 764" version="1.1" xmlns="http://www.w3.org/2000/svg" xmlns:xlink="http://www.w3.org/1999/xlink">
    <g id="Page-1" stroke="none" stroke-width="1" fill="none" fill-rule="evenodd">
        <g id="Desktop-HD" transform="translate(-975.000000, -1061.000000)">
            <g id="We-take-care-of-your-business" transform="translate(177.000000, 1013.000000)">
                <g id="peep-standing-11-copy" transform="translate(798.000000, 48.000000)">
                    <g id="BODY" transform="translate(0.000000, 107.414921)">
                        <path d="M285.348829,645.747793 C285.975102,643.221219 284.955202,639.942116 284.367247,636.658529 C283.452805,631.551581 281.292808,624.150638 277.178186,621.836272 C276.448572,619.90961 256.204494,604.478244 245.645192,596.723104 C240.221964,592.740086 235.780343,585.226857 234.681038,585.314696 C232.590053,580.181363 232.321289,575.114011 231.037751,569.170262 C235.808208,568.545195 243.956446,569.668798 247.716137,566.958348 C248.389981,567.003052 248.379908,559.658227 248.477989,558.620633 C245.645192,550.961695 238.683814,363.559766 245.645192,274.29713 C246.382392,264.361689 248.302503,253.244577 246.405825,242.995688 C249.512348,242.314155 251.37483,239.101247 251.385964,238.972364 C258.815746,224.413368 247.418182,174.907397 240.274691,161.201168 C245.947494,161.053725 253.419425,160.283568 256.931527,155.555443 C258.594136,155.009589 259.642279,154.058003 260.449196,152.529192 C261.378316,151.072796 262.240635,149.54477 263.017067,147.978575 C266.796639,140.141328 269.128321,131.439027 267.867845,122.804173 C268.108276,122.728098 269.345425,122.720256 269.406924,122.374652 C269.528333,120.251885 269.137864,118.381392 268.499011,116.376527 C262.008422,93.7936267 254.195327,71.5599897 243.867643,50.299375 C238.692402,38.9200862 227.985118,34.7676183 216.89081,30.4956794 C211.553603,28.4024528 206.21401,25.9866283 200.643793,24.6157179 C200.573546,24.2267181 200.906227,23.0432491 200.176185,23.1397148 C199.274633,23.3274176 199.452504,24.7744026 199.118233,25.5863873 C186.238052,15.0619569 194.406095,9.63870416 186.639655,3.8748152 C178.60336,-0.288893958 173.839265,-0.458035656 164.978822,0.443094844 C161.710068,0.537469114 159.094481,2.00824376 158.323616,5.29252065 C155.513722,12.087991 148.929824,17.0895659 141.7471,18.622821 C141.153576,17.5682343 139.521717,14.5438134 138.607706,15.4985359 C128.234163,15.851982 108.187722,24.0316234 98.4782142,26.8753999 C88.7310647,29.3602405 88.8545655,32.007987 86.3044546,42.5794739 C81.6774082,61.4172057 82.5444989,132.167832 94.6190885,147.077137 C98.9965531,149.995712 102.284325,151.813063 104.482404,152.529192 C104.408445,159.499294 105.577732,169.88305 104.482404,176.699695 C102.016325,189.062202 99.010475,201.475707 96.2634064,213.904093 C96.2512125,215.288859 85.2579018,235.81343 90.4108754,232.013885 C91.4743936,232.536211 93.3440331,234.728956 94.4894623,235.216774 C89.0149415,247.670518 90.022792,262.95719 90.4108754,278.342026 C90.5078962,287.50365 88.3633643,297.543297 86.3044546,306.925563 C71.0719158,386.420332 60.7391951,476.683215 55.0830915,556.312878 C54.8524682,559.573365 54.701105,562.062127 54.5918903,564.380702 C54.4794946,565.17491 55.5544114,565.159747 55.9533632,564.75663 L56.5039433,564.222017 C57.1170833,564.397172 58.0970999,564.663563 58.7184575,564.831659 C58.7974526,567.439892 58.5387303,570.147467 58.223015,572.524339 C57.9327476,574.796118 54.2337614,584.720379 55.0830915,586.937783 C52.2633899,586.787725 46.9699216,591.407036 44.4444635,596.404166 C43.1492617,597.56097 39.0061532,599.462997 38.0560911,601.24173 C36.7739667,602.474086 31.6802836,605.666734 22.7750419,610.819675 C17.8569329,614.746795 2.0352178,630.342324 3.32617831,633.507914 C3.32617831,633.507914 3.18091212,634.497667 3.13213661,634.827585 C0.416613102,650.598545 4.93842099,649.938418 19.5684232,652.258561 C40.9400491,656.021506 61.1537869,644.608766 79.2155704,634.936057 C85.217609,630.89574 91.0640431,631.967984 90.4108754,627.088494 C89.2262137,621.064226 89.0157367,599.496717 82.1648982,599.984013 C83.2915065,598.749827 83.0091917,587.430143 82.1648982,585.314696 C81.6286327,579.865823 86.5679484,574.778341 86.3044546,569.170262 C89.1742571,569.3828 95.0368614,570.725738 96.2634064,567.531129 C96.2082689,567.209054 94.853158,567.21559 94.6190885,567.138731 L94.6437414,566.958348 L94.4894623,566.921749 C106.437077,524.888599 135.542504,331.858038 167.145324,317.041801 C167.340691,318.625511 170.817728,316.746391 172.923558,317.041801 C182.698541,393.161839 193.889976,464.912995 199.859939,546.330279 C200.456909,548.745058 201.838106,565.586906 202.420918,568.380423 C203.641013,569.386541 204.61078,569.989116 205.330219,570.188147 C205.65649,578.778768 204.551136,596.70402 204.513229,596.723104 L203.941719,598.118654 C200.61279,605.611605 198.13265,615.638218 202.420918,622.981373 C199.238316,622.750012 197.848745,625.458109 197.706394,628.271037 C195.830923,640.606356 245.415735,651.553237 256.931527,652.258561 C260.715075,652.917612 287.688198,648.115777 285.348829,645.747793 Z" id="ðŸŽ¨-Background" fill="#FFFFFF"></path>
                        <path d="M280.815251,646.767195 C274.564563,648.197762 268.466034,650.562549 262.294076,651.960044 C242.192734,650.481589 222.459064,643.730647 204.826187,635.398859 C199.714832,633.165831 196.717789,629.203264 199.00255,624.119421 C206.482169,633.347331 234.169163,639.766229 246.844434,643.742024 C254.727245,645.468388 263.678082,649.371689 271.638298,645.72926 C276.682322,644.868592 282.423783,642.45327 284.364995,637.920541 C284.498597,639.852216 284.300049,641.773308 284.131721,643.699692 C284.329474,646.063685 283.173971,646.384353 280.815251,646.767195 L280.815251,646.767195 Z M206.168574,569.00781 C206.002896,568.615178 205.477499,568.606182 205.278686,568.963625 C204.89617,568.93267 204.488735,568.894042 204.082626,568.876844 C204.778737,566.679799 204.876553,564.38142 204.530883,562.11188 C204.09429,555.855962 203.594341,549.604541 203.064967,543.355766 C197.606086,483.472512 191.318287,423.409611 180.596688,364.184624 C180.725519,364.093874 180.81008,363.953119 180.787283,363.773736 C180.249692,359.577019 179.113806,355.486397 178.320674,351.332541 C177.520649,347.143232 176.845745,342.931699 176.108015,338.731542 C175.88773,337.477448 175.663734,336.222296 175.42993,334.968466 C175.597993,331.921864 174.861059,328.717575 174.471915,325.765956 C174.198613,323.69432 173.804433,321.574795 173.26154,319.503423 C173.490308,318.806263 173.37102,317.979461 172.809571,317.454276 C172.801884,317.447132 172.793666,317.440518 172.786244,317.433639 C172.828127,317.29553 172.874252,317.164035 172.923558,317.041801 C173.30952,316.089589 174.144801,315.663356 174.748928,314.986039 C176.483375,314.673045 178.257584,314.586793 180.00661,314.864334 C180.267983,314.913016 180.462025,314.552662 180.198266,314.411114 C173.169291,310.306734 164.419388,314.264274 159.2354,319.615339 C143.303834,342.214431 137.541431,370.908578 128.738247,396.837898 C112.80244,453.236147 101.6241,510.926588 88.8223842,568.031786 C78.6961642,567.561368 68.5935367,566.086617 58.4453146,566.340611 C58.0641234,565.481266 57.4088351,564.561861 56.6284269,564.192512 C62.9337219,477.140396 73.7674519,390.412386 89.8975661,304.624682 C91.6876804,282.153646 88.8870648,259.243941 95.564008,237.271367 C142.951537,255.888313 195.938441,258.659755 245.645192,248.647111 C236.351337,353.861366 231.441711,460.175996 244.20817,565.368556 C240.127463,566.979299 235.745619,567.670903 231.406455,568.176245 C223.062661,569.183224 214.556636,569.310486 206.168574,569.00781 L206.168574,569.00781 Z M80.0820249,593.807122 C79.3315713,595.26203 80.1276194,596.776468 81.7006296,597.190001 C76.9951183,598.428485 76.1221957,603.425018 72.4131363,605.704612 C72.0656108,605.048461 71.0829433,604.938133 70.4255342,604.746844 C68.4440291,597.392402 66.1566168,588.73836 56.8733648,586.033591 C57.4639726,585.279812 57.3823266,584.390305 57.3547579,583.498416 C58.0445072,579.998859 60.5280819,572.184848 58.9895327,568.170953 C67.51915,570.111095 76.2748843,570.905619 84.9235244,572.163153 C83.1638949,578.549772 81.6727957,588.193596 80.0820249,593.807122 L80.0820249,593.807122 Z M86.0151416,624.912623 C86.2940102,624.837483 86.5728789,624.759962 86.8464459,624.677678 C88.2073887,630.63489 78.9851061,632.579 74.4365247,634.692968 C67.5814448,637.528703 60.7345826,640.374755 53.9038905,643.242503 C40.0731175,650.16833 27.0831918,652.11879 11.7080377,647.182581 C1.92351128,645.311229 3.78493319,643.444375 2.35056208,635.910022 C12.1610667,649.079861 32.2576372,643.427442 44.7332994,637.733485 C56.07228,633.399188 67.4934369,629.23713 79.223947,625.589675 C81.5675573,626.175183 83.8008925,625.564275 86.0151416,624.912623 L86.0151416,624.912623 Z M185.618444,143.468309 C179.711041,145.065559 173.720931,145.892891 167.714651,147.077137 C168.238193,143.228867 169.007732,139.381921 169.021517,135.483382 C174.278403,138.68529 179.865585,141.301425 185.618444,143.468309 L185.618444,143.468309 Z M129.87917,104.543771 C142.503809,101.916788 155.87095,102.876143 167.799478,107.866855 C171.895296,109.226516 177.428665,112.769199 181.681943,111.129087 C178.526909,121.122418 182.500523,131.418159 186.60986,140.512986 C177.177365,137.373783 168.872539,131.851536 160.284338,127.008987 C163.499811,122.784489 134.256772,117.664134 131.082387,117.775257 C130.181366,113.4063 129.107775,109.07359 128.16646,104.710454 C128.691592,104.906241 129.3437,104.64431 129.87917,104.543771 L129.87917,104.543771 Z M195.114824,109.270435 C195.182156,109.319911 195.231991,109.384203 195.255054,109.469133 C207.611693,111.177505 220.020819,116.790237 232.708549,115.16309 C241.280844,114.059011 237.333739,118.9513 231.624354,118.767684 C218.743643,120.055909 206.801065,112.455675 194.817134,109.864675 L195.114824,109.270435 Z M201.858834,26.6724695 C201.828879,26.8074037 201.798394,26.9426024 201.77003,27.0783303 C201.64279,27.0783303 201.515815,27.0651015 201.383272,27.0280607 C201.300831,26.9484231 201.222631,26.8664043 201.142841,26.7854438 C201.37691,26.7192996 201.619197,26.6785548 201.858834,26.6724695 L201.858834,26.6724695 Z M288.953604,644.245514 C288.775997,641.261881 287.206698,638.272163 284.961434,636.264555 C286.460486,630.140131 283.457876,622.337497 277.051319,619.701253 C275.309185,616.851232 271.528023,615.597667 268.796594,613.564659 C271.087983,613.424698 273.188246,611.795963 271.428881,610.043142 C267.706303,611.16971 264.105132,612.691291 260.560425,614.216576 C259.602941,614.417126 257.327722,616.311495 257.14879,614.621643 C257.8229,613.27627 263.021468,611.917139 264.716947,610.983977 C263.460447,610.19104 262.201297,609.395723 260.950099,608.597494 C263.173626,608.543521 266.0315,606.876951 263.852772,604.985756 C257.982215,606.289591 251.877854,607.438913 246.704469,610.405877 C242.436612,609.348892 254.861378,605.55248 256.008928,605.372039 C254.060558,604.047832 252.173158,602.663301 250.399744,601.168442 C252.344668,601.13246 256.399132,599.179619 253.806077,597.435793 C250.541299,596.598407 246.008093,599.285449 242.767967,600.146911 C242.765317,600.144795 242.765317,600.147176 242.765317,600.147176 C240.324155,601.049647 237.906587,602.024878 235.509959,603.032386 C234.542402,603.43957 234.131521,602.106896 235.085825,601.703417 C238.809199,600.138445 242.577637,598.658402 246.428781,597.381819 C245.379048,596.239377 244.390283,595.050898 243.399133,593.857921 C243.662097,591.988157 241.727777,590.346193 241.010989,588.655018 C241.162882,587.789058 240.727348,586.430721 239.698291,586.250809 C238.880771,585.459724 237.646804,585.407867 236.506941,585.588044 C234.698271,582.11759 233.13719,576.713609 232.563813,572.407357 C237.354946,571.769198 242.914294,571.749619 247.055706,569.110201 C248.288083,569.033209 249.516748,568.141056 249.550679,566.658368 C249.673148,561.311535 249.143245,556.043282 248.667418,550.722907 C248.191857,545.408353 247.74466,540.091418 247.326357,534.772101 C240.256824,449.447407 241.530554,363.675578 248.253887,278.373373 C248.972,268.372899 249.33172,258.144624 247.667785,248.214263 C249.733587,247.577163 257.454433,246.249781 256.859848,243.457173 C263.559589,226.426893 253.650738,182.807175 246.365161,165.666303 C251.787195,165.349869 258.295545,164.189435 261.856422,159.726554 C265.286083,158.519819 266.48824,154.506189 268.197769,151.614629 C271.874753,143.90883 274.257331,135.236796 273.326885,126.6571 C277.123157,125.652766 272.41579,115.241405 271.996427,112.438743 C265.701205,91.7091504 258.487731,71.0930618 249.034825,51.5725857 C245.660302,44.4356265 239.745741,38.7969658 232.506289,35.6455916 C223.803572,31.8581747 215.058706,27.9392632 205.958362,25.1680858 C206.013765,23.6208407 204.392244,23.0149599 203.286048,23.5742752 C203.215535,23.5515216 203.144493,23.5282389 203.072125,23.5110414 C201.953469,23.2459354 200.25958,23.6816934 199.359619,24.6153849 C196.409761,20.3019894 195.646318,14.8442992 194.557882,9.77738895 C190.170472,14.358007 194.22149,29.6923491 201.054303,31.0125873 C196.603803,63.0549541 159.293188,55.4539273 147.939628,32.1042312 C145.4762,27.5934613 143.814916,23.1578313 141.35732,18.5668947 C148.44859,20.016511 155.701296,16.1089763 158.272349,9.31940652 C158.799866,8.21929619 159.256076,7.60547802 160.228936,6.91757835 C161.424201,6.0709326 161.119354,3.91727746 159.430767,3.97178348 C152.771319,5.464258 157.14521,16.0481236 140.946439,17.902807 C140.360338,16.9979543 139.668733,16.1407255 138.939751,15.6988823 C138.631723,15.3604885 137.658864,15.2655055 137.134262,15.6539042 C124.945686,16.3857236 113.056655,19.4611643 101.366703,22.7734012 C91.3266356,25.2368758 80.7988128,30.591381 78.3125872,41.4956492 C73.5543242,58.8362771 81.1444827,145.014232 94.2465391,155.670591 C96.4069761,157.758102 98.9995005,159.194754 101.806743,160.205438 C99.1198487,179.367412 94.9315169,198.410063 91.365868,217.45483 C91.0991932,220.739551 85.3871569,238.966511 92.6374774,235.967004 C92.8341699,236.061987 93.0335133,236.15353 93.2320615,236.245867 C92.8036853,237.11659 92.400492,237.998953 92.010553,238.891635 C90.7585599,241.756738 89.7621081,244.653854 89.3051027,247.757339 C88.8298066,250.984118 88.7359668,254.246085 88.592026,257.500115 C88.538479,258.709496 88.494475,259.898239 88.4793652,261.080633 C87.0789248,272.500826 87.1072889,284.159403 86.9940979,295.634363 C80.6596436,339.014375 71.5651316,382.068163 66.3954577,425.676769 C60.1079233,472.265039 55.1200973,519.045392 52.21981,565.970997 C52.1206685,568.124388 54.6201483,568.549034 55.8355598,567.354469 C56.0097201,567.403945 56.1844107,567.45104 56.3593663,567.499193 C56.3622823,569.381657 56.2003158,571.269148 55.9816212,573.138383 C55.565969,575.862995 52.4395649,582.721619 53.2268652,585.19356 C50.3809202,584.799341 45.7992033,585.377441 44.9732006,587.704658 C41.7153147,591.843433 41.9236709,597.48765 38.0560911,601.24173 C41.7786698,602.054246 45.4763306,603.143508 49.0867787,604.287274 C49.832991,604.687314 49.3812874,605.776841 48.4375873,605.495596 C46.4330199,604.897652 44.4231507,604.281188 42.4021481,603.723196 L42.4021481,603.721079 C40.4479467,603.179755 38.4852625,602.693992 36.4971303,602.323585 C36.4284735,602.37941 36.452066,602.499793 36.5384835,602.54821 C35.1157761,603.64885 33.5006175,604.606353 31.8806874,605.52417 C32.9251195,605.753029 46.8017521,609.460279 42.6500019,610.622036 C38.6244318,608.95626 34.4289427,607.364566 30.0767887,606.539087 C28.1936299,607.60295 26.3512941,608.712056 24.4917277,609.804229 C25.3893032,609.993931 40.3485401,613.235526 35.1640214,614.172921 C31.1429578,612.713516 26.9750374,611.733523 22.7750419,610.819675 C17.6255144,613.873949 12.4677692,616.919228 7.38557316,620.058961 C5.26012729,621.364119 2.9493875,622.623504 1.58446847,624.587722 C-0.228708104,627.199889 -0.250179931,630.460533 0.995981335,633.447605 C-2.64177043,649.076686 3.77777592,649.679921 18.740724,652.962261 C39.9511787,658.378942 58.3461731,645.38584 76.7785444,638.326666 C80.6286287,636.527809 84.884292,635.174763 88.3348942,632.80389 C91.5933104,630.488843 93.7410233,625.625128 90.7569694,622.289079 C92.8193252,618.441868 90.0650994,609.008118 89.4068951,604.499993 C88.8637374,601.656057 88.4981861,597.067767 84.2639947,596.92172 C85.3961697,596.18699 85.3601183,594.807752 84.9834335,593.697852 C84.4877259,588.236722 86.1887718,578.53866 86.5975318,572.370316 C89.8339459,572.603144 94.6335621,573.549535 96.3131362,569.971134 C96.9617975,568.936903 96.1246613,567.827268 95.064059,567.686513 C95.0645892,567.684661 95.0648543,567.683338 95.0653845,567.681751 C95.2920315,567.698948 95.2278811,567.673549 95.0767831,567.637302 C112.234894,496.958785 123.301368,424.545174 148.061567,355.911043 C153.729599,342.653628 156.254527,325.557205 168.920255,316.999468 C169.09309,318.068623 169.275202,319.301816 169.948517,320.071205 C169.985098,320.209579 170.023005,320.347688 170.058261,320.486061 C170.500687,322.209515 170.998781,323.916035 171.438555,325.640018 C181.347936,401.741036 192.788444,477.683043 198.286293,554.295488 C199.119453,557.842934 197.764077,570.471978 202.741299,569.90499 C203.35709,570.251056 204.160826,570.416946 204.828573,570.582306 C203.800046,575.134879 204.087397,582.011759 204.118942,586.163234 C204.047635,590.311534 203.361066,594.607467 203.824434,598.715022 C204.357253,601.415557 209.417712,599.788939 208.590649,597.074646 C208.474807,589.290796 208.002427,579.68904 206.662956,571.047432 C214.418262,572.557372 222.367345,572.923811 230.264206,572.56187 C229.840602,577.123968 231.195182,582.831418 232.771639,586.573593 C228.04333,588.157878 223.463734,590.290367 219.809017,593.50815 C216.348076,596.645767 213.167595,603.840933 207.066415,601.462916 C205.375177,600.712312 203.522238,599.4098 202.939052,597.731854 C202.374158,597.3125 202.669727,598.322919 202.780002,598.563948 L202.549378,598.643321 C201.146022,597.75011 198.568342,607.015325 198.353094,608.170997 C197.275526,613.131547 196.026979,618.782907 198.578416,623.420145 C193.095942,625.692066 193.686285,633.081431 197.751353,636.175392 C213.889949,646.605803 240.799716,655.120149 260.830281,656.548599 C264.374723,656.794391 268.103664,655.758044 271.476596,654.644176 C275.439607,653.586927 279.415871,652.456919 283.333817,651.214467 C286.785214,650.423911 289.38251,647.471234 288.953604,644.245514 L288.953604,644.245514 Z" id="ðŸ–-Ink" fill="#000000"></path>
                    </g>
                    <g id="Head" transform="translate(113.986347, 0.000000)">
                        <g id="HEAD">
                            <path d="M16.4280546,26.8284334 C17.8027817,25.3560635 19.5610859,24.2591281 21.4832121,23.9085638 C19.7262334,24.7845776 18.0087522,25.6976321 16.4280546,26.8284334 Z M13.7353283,39.5238864 C13.492246,38.4018162 13.3289541,37.2688984 13.2775278,36.1362451 C13.5847605,36.6024294 14.0754315,36.9138363 14.6265417,37.074699 C14.2705335,37.8702814 13.9678073,38.6899404 13.7353283,39.5238864 Z M105.72492,57.1164743 C104.138125,50.5240142 96.7348887,37.8436008 94.9850955,35.4029796 C93.0849713,29.359781 103.448071,24.5133864 97.8121139,19.7877802 C95.2604125,17.6555558 91.8880101,16.9009828 88.7244941,16.1448223 C66.8205789,10.8945603 43.2869254,13.5424449 22.9719255,23.1971168 C19.8818379,22.5481099 16.6623891,23.8164911 14.4152696,26.0442277 C3.85828754,36.6347078 18.2454725,55.7429733 21.3914929,67.6822658 C26.7891393,80.9949766 15.6704437,83.2343546 16.8627928,94.4981826 C17.7892624,100.317285 23.6945453,101.85527 28.6778649,102.734723 C29.4765639,102.92125 30.5443234,102.949295 30.8019854,103.791972 C31.6094321,108.710719 34.3774423,113.398226 38.093659,116.579498 C37.7686657,117.54044 38.0167846,118.70696 39.162744,119.55096 C49.5455656,127.251996 62.6373143,131.105931 75.5871816,130.41316 C91.0198853,129.587566 99.0007519,120.759017 100.926589,118.485773 C111.57476,104.133276 110.302414,85.1964561 108.130313,68.0918307 C106.617185,56.1764085 108.535909,68.7949439 105.72492,57.1164743 Z" id="ðŸŽ¨-Background" fill="#FFFFFF"></path>
                            <path d="M58.1387502,2.26009653 C58.6238544,0.74671725 59.9969911,-0.163426933 61.5689409,0.0244225932 C62.9606335,0.188460208 64.4504072,1.56690532 64.2807533,3.08822191 C64.2489432,3.38190215 64.2065297,3.65706202 64.1561637,3.91634728 L64.1627908,3.91866233 L64.1627908,3.91866233 L64.1694179,3.91899305 L64.1349569,4.01953224 C64.031574,4.50370778 63.8884285,4.93761372 63.6763611,5.34770776 C63.4059751,6.13350085 63.1461925,6.9219397 62.8890607,7.71302433 C63.2601787,7.69714972 63.6392493,7.71831587 64.0236215,7.7897516 C64.4212479,6.7737767 64.8215252,5.76044756 65.2191517,4.74182689 C65.6459374,3.65441626 65.9454826,2.25745076 66.7884507,1.41609655 C67.8673438,0.34191475 69.7388389,0.11967024 71.053657,0.886942953 C72.4426987,1.69654795 72.9384063,3.13584573 72.6362102,4.67832846 C72.4826441,5.46512512 71.9559302,6.0126764 71.3042087,6.35670325 L71.2339143,6.39278611 L70.732905,7.57809016 C70.8866539,7.51194596 71.0457045,7.4510933 71.2180092,7.40082371 C71.4883952,7.32145067 71.7534795,7.27118108 72.0132621,7.25001493 C72.7289897,5.95623439 73.5162901,4.69949461 74.3300989,3.46656673 C75.2658464,2.04843509 77.094928,1.4452 78.6297661,2.34211534 C80.0029028,3.14378304 80.7398371,5.24981434 79.7563744,6.633551 C79.0088367,7.68392088 78.3010616,8.75545691 77.6038899,9.83757601 C77.7231778,9.85874216 77.8424658,9.88519984 77.956452,9.91959482 C78.0094689,9.84815909 78.0651366,9.77672335 78.1234551,9.70528762 C78.884247,8.76339422 79.7696286,8.05697417 80.6788677,7.27382685 C81.5297883,6.53830335 81.922113,5.38210274 83.0407688,4.8238457 C84.4483664,4.12271719 86.1449058,4.45872972 86.9825722,5.85569521 C88.7798437,8.84805879 85.7631845,11.0334631 83.8333708,12.8458142 C85.5113544,11.8007359 87.2582599,10.8456136 89.0502297,10.020134 C90.05755,9.55712461 91.0807754,9.10998982 92.1199058,8.7237077 C93.6600456,8.15222181 94.9059418,8.33504438 96.1703939,9.39837853 C96.7350234,9.87461677 97.0160128,10.9146682 96.7562301,11.6075948 C96.25257,12.9357703 95.4573171,13.7427295 94.0629737,14.1263659 C93.0821618,14.3962342 92.0774924,14.5787922 91.0966805,14.8618894 C89.4531578,15.3328361 87.8573504,15.9069677 86.3092581,16.6239709 C86.4205935,16.6927608 86.5266272,16.7668423 86.6247084,16.8515069 C87.7804759,16.4784536 88.9574502,16.1556699 90.1397262,15.8805101 C92.1005215,15.4216347 94.0962646,15.1115838 96.1007445,14.9176566 L96.7666625,14.8557842 C99.1697753,14.6256129 102.059525,14.2008254 103.534436,16.496974 C104.01954,17.2536636 104.072557,18.5024661 103.534436,19.2512185 C102.505908,20.6905162 101.482683,20.9762592 99.7808419,21.0027169 C101.456175,21.1799833 103.128857,21.3995821 104.793586,21.6562216 C105.941022,21.8308422 107.088459,22.0287889 108.230887,22.2483953 L108.80166,22.3599958 C110.193353,22.6378015 111.746747,22.7991933 112.942277,23.6035068 C115.550707,25.3602967 114.326017,28.7812747 111.436598,29.1463907 C110.039604,29.3210114 108.488861,28.7310051 107.118375,28.4558453 C105.787652,28.1886227 104.451627,27.9531493 103.110301,27.7467794 C102.41578,27.638303 101.721259,27.5430553 101.024087,27.455745 C102.442288,27.6594691 103.849886,27.9478578 105.220372,28.3553061 L105.601056,28.4699603 C108.250523,29.2758874 111.826827,30.5594769 112.653335,33.384911 C113.154345,35.1020144 111.783859,36.5995191 110.124431,36.7000583 C108.581641,36.7926601 107.295982,35.8745787 105.986465,35.1972621 C105.032162,34.7051492 104.061953,34.3373875 103.033426,34.0225411 C101.970438,33.6971116 100.886243,33.4272433 99.7940962,33.2076445 C100.717071,33.7151509 101.615948,34.2729488 102.478777,34.8969406 L102.87539,35.1893882 C105.168743,36.8949127 108.665884,39.535422 107.85796,42.7324093 C107.603479,43.7404469 106.476871,44.7035064 105.395327,44.6003214 C102.580132,44.3383904 101.026738,41.3460268 98.9034129,39.7426914 C98.3493867,39.3246601 97.7423437,38.9119203 97.1061414,38.5097636 C100.324265,42.3408356 102.884979,46.7698512 104.833349,51.344384 C109.11538,61.4083184 110.429017,70.728335 110.460521,81.5493327 L110.461088,81.8844838 C110.46639,87.8533363 110.331197,93.9306653 109.748011,99.8730602 C109.207239,105.363029 108.215824,110.781562 105.721381,115.753224 C101.541002,124.089774 93.3949613,130.582489 84.4112546,133.053636 C74.4149258,135.805235 63.2416228,133.654226 55.053169,127.304383 C52.9643048,125.685173 55.7344356,122.169212 57.8683642,123.663806 C66.3908243,129.630013 77.4130292,131.519091 87.1946397,127.481649 C94.9536569,124.28027 101.201694,117.393336 103.849886,109.463969 C105.535476,104.419467 106.026214,99.0407436 106.62747,93.7835551 L106.667732,93.433261 C107.303934,87.9353551 107.672401,82.4004085 107.6671,76.8654619 C107.659147,66.5866533 106.179977,58.1254873 101.649686,48.801801 C99.5184085,44.4098261 96.7535793,40.3488369 93.450629,36.7847228 C92.4486104,36.988447 91.3829715,36.702704 90.3703495,36.5942275 C89.8534351,36.5386664 89.3365207,36.4857511 88.8196064,36.4381272 C89.3476543,36.7789022 89.865523,37.1332234 90.3745696,37.4958079 L91.04223,37.9763455 C93.1315225,39.4697449 95.7822515,41.1707594 95.2452497,44.057939 C95.0994533,44.8384406 94.3201055,45.5554437 93.5646152,45.7327101 C90.8262945,46.3835691 88.944196,43.727218 87.0939076,42.1503403 C85.484846,40.7798325 83.8015607,39.5521961 82.0864653,38.321914 C81.6967914,38.0441084 81.3044666,37.7663028 80.909491,37.4911429 C81.2806091,37.9229322 81.6415478,38.3614947 81.9936646,38.8041211 L82.5142517,39.4626741 C84.0895108,41.4298929 86.3603291,43.9868973 84.9573282,46.5370236 C84.5597018,47.2566725 83.711432,47.7355565 82.8896707,47.7196819 C80.0638721,47.661475 78.9399147,44.4600957 77.6144933,42.438729 C76.4746308,40.705751 75.2366871,39.0733121 73.95633,37.4408733 C73.6037679,36.9937385 73.2485549,36.5466037 72.8880403,36.0994689 C66.952803,36.406378 61.0387724,37.1895253 55.2281246,38.4409736 C51.2359552,39.3008482 47.3100568,40.4149811 43.4133176,41.6344155 L43.0894753,41.7372383 C40.9805897,42.4149344 38.8077043,43.2822773 37.2872196,44.7696506 C37.0701686,45.7944094 37.2367857,46.8751527 37.4444172,47.898568 L37.6062432,48.681912 C38.2729886,51.957554 38.72729,55.1725457 38.3873194,58.5355814 C38.0347573,62.0041832 36.9876743,65.1235436 35.709968,68.346089 C35.1055759,69.8647598 34.4799769,69.5896 34.2652586,71.219393 C34.1007738,72.4607874 34.2025066,73.7423246 34.3148688,74.994137 L34.4087688,76.0553603 C34.6444271,78.8352648 34.7627607,81.8660936 32.9371863,84.1598442 C32.6535461,84.5117314 32.0465031,84.3715056 31.845039,84.0196185 C31.7655138,83.8793928 31.6806868,83.7444586 31.5879073,83.614816 C30.7078274,82.3422016 29.3585484,81.6172612 27.8157578,81.3368098 C27.6195954,81.3024148 27.6964698,81.0404838 27.8608221,81.0193176 C29.1650368,80.8658631 30.4003296,81.1912925 31.4500634,81.8633176 C30.9522598,80.1452605 27.0983944,80.9807844 25.8314932,81.3146563 L25.7878629,81.3262267 C24.2079605,81.7495496 22.7128851,82.4374493 21.3954162,83.4110919 C18.7445732,85.3689602 17.212386,88.4221764 17.2892605,91.710866 C17.3661349,94.9439945 19.0388168,97.9310665 21.9123305,99.4788408 C23.2987214,100.224947 24.8759729,100.584772 26.445272,100.568897 C28.0834929,100.553023 29.5414565,99.8360195 31.1823283,99.9365586 C32.1313301,99.9947655 32.857661,101.01074 32.3089366,101.897073 C31.9431202,102.489725 31.4659685,102.95538 30.9145932,103.312559 C32.2585705,106.405461 33.9736659,109.355493 35.9511948,112.077988 C37.0459929,113.588721 38.2865874,114.983041 39.6517715,116.255656 C40.7174104,117.250464 43.0262946,118.401373 42.8964033,120.06027 C42.8513389,120.658213 42.5411903,121.023329 41.9951167,121.245574 C40.2973755,121.938307 38.2329772,119.553006 37.0974435,118.403063 L37.0062302,118.311417 C35.5906801,116.903869 34.2997196,115.348157 33.1757622,113.697198 C31.1823283,110.765687 29.9443847,107.461123 29.432772,103.989875 C26.7103563,104.807417 23.1052099,104.040145 20.8838035,103.037399 C13.9014832,99.8889348 11.6191074,90.5043958 15.8631069,84.2550919 C16.6848683,83.0459759 17.7133953,82.0114806 18.8850679,81.1754179 C18.6279361,81.0351922 18.3867094,80.85528 18.1719912,80.627744 C16.9842096,79.3684602 16.1444492,77.7251291 15.3110045,76.2105037 L15.2109996,76.0293992 C14.4711199,74.6959322 13.77313,73.3415603 13.1188918,71.9662835 L12.875607,71.4495749 C11.4149925,68.3143398 10.1346354,66.943832 9.09285408,63.6472051 C8.09083544,60.466992 7.30088425,57.2259262 6.78927156,53.9292993 L6.65331591,53.0567023 C6.35743157,51.1438113 6.07760859,49.0983034 6.29356393,47.1561333 C4.80644104,47.6403088 3.31136562,47.9392806 1.84014779,47.2116944 C0.869939273,46.7328104 0.334468999,45.3358449 0.665824367,44.3330989 C0.907051074,43.5949296 1.3099792,43.0155064 1.82159189,42.5604343 C1.51674495,42.4069798 1.23045391,42.211193 0.978623834,41.99424 L0.75860387,41.8040093 L0.75860387,41.8040093 C-0.132079359,41.0311804 -0.195699589,39.5627792 0.345072371,38.5944281 C0.39808923,38.5018263 0.451106088,38.4065786 0.501472104,38.3139767 C1.01573563,37.3958952 2.07872365,36.7953059 3.12845746,36.8111805 C3.29811141,36.8138263 3.46776536,36.8138263 3.64007015,36.8111805 C3.1496642,36.702704 2.66986163,36.5360207 2.21391664,36.2555692 C0.156862522,34.9935379 0.41664513,31.5725599 2.90578665,30.9693248 C3.95021877,30.7179769 5.10333545,30.8211618 6.25380129,31.0910302 C6.2113878,31.0672182 6.16897431,31.0434063 6.12656083,31.0169487 C5.25708434,30.4851493 4.52810253,29.4453625 4.61027866,28.379118 C4.70040732,27.1991055 5.08212871,26.3577513 6.12656083,25.7386415 C7.03314911,25.2041964 8.31615709,25.1539268 9.21744369,25.7386415 C9.99944236,26.2492748 10.765536,26.8128233 11.5024703,27.4187042 C10.7628851,26.5112058 10.1213811,25.5243343 9.86159853,24.4766102 C9.54084653,23.1722466 10.0763168,21.7514692 11.2532911,21.0635695 C12.1916895,20.5158956 13.1831047,20.5767482 14.0684863,21.0000711 C14.0207711,20.3148172 14.1877742,19.6163345 14.6437192,18.9972247 C15.5768159,17.7275207 17.2733554,16.9970242 18.7498749,17.9230429 C18.9433864,18.0447483 19.2031691,18.2537639 19.4549991,18.5104034 C18.9645932,16.9520461 19.407284,15.3169615 21.0799659,14.6131872 C22.1005404,14.181927 23.4816296,14.39888 24.3670111,15.1423408 C23.8050324,12.1076449 28.2929095,9.87726253 30.0371642,13.0124976 C30.4330234,13.7227393 30.8246936,14.4706097 31.1749394,15.2356685 L31.3042671,15.5233314 L31.3175213,15.5180399 L31.2283867,15.3077013 L31.2283867,15.3077013 L31.137264,15.0973627 C30.6521597,13.9729114 30.0345133,12.8034819 29.8648594,11.5837829 C29.6156801,9.77936912 30.4215364,8.06755724 32.3884618,7.80298044 C33.4037347,7.66540051 34.5329938,8.12576413 35.2142604,8.93034218 C34.8457933,6.13085508 37.9790896,4.09625951 40.2349569,6.18641621 C41.3032467,7.17593343 41.8731779,8.62316851 42.5517937,9.89313714 C42.9361659,10.6101403 43.3284907,11.3244976 43.7128629,12.0441465 C43.8109441,11.9277327 43.9169778,11.8113189 44.0283132,11.6975509 C43.458382,9.99367632 43.0156912,8.24746946 42.6419223,6.49067953 C42.2867094,4.83442877 43.1164232,3.11467959 44.8288678,2.64664323 C46.3849126,2.21776424 48.3332821,3.17579683 48.6805426,4.82940181 C48.9244201,5.99327515 49.213362,7.14444879 49.5314631,8.28980175 C49.7488323,8.23688639 49.9635505,8.19984564 50.175618,8.17338796 C50.1932903,7.95819883 50.2133189,7.7418338 50.2357038,7.52664467 L50.3191387,6.76130287 C50.5045134,5.01259944 50.691486,3.01636842 51.6070732,1.52986457 C53.1684197,-1.01007269 57.1711925,0.042942969 57.213606,3.04588962 C57.2374636,4.59895542 56.6039121,6.13879238 56.3838921,7.67598358 C56.2884618,8.34536288 56.2327941,9.02267948 56.200984,9.69999608 C56.6277697,7.4510933 57.213606,5.23129397 57.8922218,3.04588962 C57.9717471,2.78395859 58.056574,2.52202756 58.1387502,2.26009653 Z M23.6035418,88.9831586 C27.1159087,88.4407762 30.3260795,90.3959987 32.4069912,93.1343686 C32.7860618,93.6344187 32.5368825,94.3408388 32.1949238,94.7615159 C31.9483954,95.0710707 31.61704,95.1081115 31.2432712,95.1557353 C30.8138346,95.2112964 30.2704118,94.8647008 30.082202,94.4916475 C28.7435263,91.8247134 26.3551168,90.1393592 23.6035418,89.1022182 C23.5531758,89.0836978 23.5372708,88.9937417 23.6035418,88.9831586 Z M28.4725628,41.1994081 L28.5789355,41.0854187 C29.2896264,40.3496306 28.1664643,39.2257084 27.4541828,39.9630839 C26.7042593,40.7393522 26.2059009,41.6823039 25.7266284,42.6379553 C25.2698882,43.5491578 26.6414343,44.3540004 27.1000302,43.4393585 L27.3088565,43.0236397 C27.6366029,42.3772329 27.9861316,41.7386152 28.4725628,41.1994081 L28.4725628,41.1994081 Z M18.608585,39.6892469 C19.6159053,39.5199178 19.1888545,37.9898702 18.1857755,38.1586702 C16.8863323,38.3772106 15.5919257,38.6256482 14.2922174,38.8444532 C13.2851622,39.0137824 13.712213,40.54383 14.715292,40.3752946 C16.0147352,40.1564896 17.3091418,39.9080519 18.608585,39.6892469 Z M78.6151865,29.2434904 C77.642062,28.9193838 77.2245543,30.4520772 78.192377,30.7743317 C79.5297273,31.2196145 80.8562091,31.6760095 82.1249025,32.2943254 C83.0412989,32.7409311 83.8484806,31.3722753 82.9275778,30.923553 C81.53509,30.2449136 80.0832233,29.7324283 78.6151865,29.2434904 Z M18.3795522,27.1861412 C17.429225,26.8067381 17.0164887,28.3415481 17.9567427,28.7169826 L21.3922352,30.0882841 L21.3922352,30.0882841 C22.3425623,30.4676872 22.7552986,28.9331418 21.8150446,28.5577073 L18.3795522,27.1861412 L18.3795522,27.1861412 Z M90.6113012,23.4589077 L90.4859262,23.3799394 C89.6244023,22.8227407 88.8262335,24.1964234 89.6829859,24.7507118 C90.1859745,25.0759296 90.7974945,25.2965114 91.2580558,25.6839269 L91.3543424,25.769597 C92.0981689,26.4707255 93.2250423,25.3505074 92.4790951,24.6469977 C91.9333528,24.1328092 91.2424613,23.8465082 90.6113012,23.4589077 L90.6113012,23.4589077 Z" id="ðŸ–-Ink" fill="#000000"></path>
                        </g>
                        <g id="FACE" transform="translate(54.607390, 62.704987)" fill="#000000">
                            <path d="M24.8083153,49.9855107 C23.0263457,49.2599483 21.4363782,48.0496624 20.2739586,46.5036006 C19.8698279,45.966126 19.7650437,45.3985612 19.8498215,44.8794507 C19.9451481,44.2957476 20.2911382,43.7667246 20.7629911,43.4118723 C21.2363055,43.0559208 21.8283618,42.8803743 22.4007567,42.9698629 C22.8981344,43.0476232 23.3932501,43.3194277 23.7850972,43.8831405 L23.8669638,43.9958697 C24.5580424,44.9290194 25.4585814,45.6946575 26.4846826,46.1881556 C27.4736775,46.6638075 28.5797681,46.8858126 29.7243915,46.756712 C31.9044006,46.5109253 33.4069725,45.3342101 35.0040425,43.7362507 C35.202004,43.5345043 35.4000923,43.3264334 35.5991408,43.1150132 C35.7248439,42.9233619 35.8992882,42.8001874 36.0929688,42.7355598 C36.3080168,42.6638024 36.5512862,42.6678624 36.7741024,42.7454715 C36.9890097,42.8203258 37.1811261,42.9621714 37.3099453,43.1509586 C37.4323774,43.3303856 37.5017928,43.5520433 37.4792693,43.8070045 C37.3330867,45.4630279 36.4656377,46.9409582 35.2334626,48.1014456 C33.8649748,49.3903152 32.0509442,50.2819638 30.3431138,50.5946928 C28.461586,50.939176 26.5443593,50.6923736 24.8083153,49.9855107 L24.8083153,49.9855107 Z M31.2307079,24.438134 C33.2324597,25.6525536 36.2825148,28.4843431 34.1290905,31.4950372 C31.5943042,34.1496656 27.9447842,31.1059528 26.146364,29.7294001 C24.4787845,28.6625639 22.6051655,31.4063865 24.1523467,32.6520976 C37.1477689,42.254975 42.4215865,24.7556878 32.243166,23.0102744 C31.1224854,22.8179373 30.7062617,24.0624401 31.2307079,24.438134 Z M7.94278659,13.267502 C8.16395393,10.5274717 12.3450415,9.90526008 12.7609587,12.6166431 C13.1334022,15.0454581 12.6949527,17.2766342 11.5988292,19.4633615 C10.5514811,21.5524599 7.91905694,20.5777971 7.71997863,18.6754899 C7.45312244,16.1255263 7.80520784,14.9719577 7.94278659,13.267502 Z M39.7697878,12.0544439 C40.3527081,11.2924627 41.1943507,10.7723047 42.2027314,11.0662495 C45.3532582,11.9851247 44.424668,16.449329 43.3182061,18.6222983 C42.7169949,19.8023108 40.773662,20.1015472 39.8954377,19.0625541 C38.4639825,17.3682043 37.7784745,13.9845316 39.5982782,12.3155812 C39.6475839,12.2293291 39.7024563,12.1422834 39.7697878,12.0544439 Z M11.5544541,1.27796632 L12.0521156,1.19102771 C13.5916719,0.92527487 15.5059331,0.669915928 16.5950319,1.90527791 C17.1726506,2.56037006 17.3714638,3.77795248 16.5950319,4.40499949 C15.2293176,5.50828474 13.7193975,5.08072864 12.0827671,5.17412425 C10.7340182,5.25138067 9.43775597,5.47415433 8.13857785,5.84482643 C5.28839152,6.65787093 2.96598802,8.14214676 0.531718943,9.77193983 C0.212292368,9.98571789 -0.113761314,9.57800504 0.0386621555,9.27982699 C1.443874,6.5327261 4.16708495,4.27615059 6.89480234,2.90061582 C8.35064528,2.16641521 9.94380189,1.55735942 11.5544541,1.27796632 Z M36.8978317,0.0473898886 L37.2787392,0.125196853 C41.4239249,0.989994858 46.8094916,2.71749988 48.7724371,6.78125524 C48.8472343,7.35588462 48.7682039,7.47903919 48.703938,7.55950136 L48.6825409,7.58627645 C48.6295857,7.65498642 48.5873315,7.74970275 48.3377845,7.82791082 C48.2685352,7.81144303 48.1985966,7.79400142 48.1279172,7.7755144 C47.2281374,7.54016654 46.5162375,7.21594174 45.8270429,6.87951981 L45.0797812,6.51207571 C44.2128083,6.08779548 43.3381806,5.67895704 42.4112762,5.37713707 C40.4331825,4.73317172 38.398543,4.27953832 36.3323806,4.03730838 C35.8845559,3.98485166 35.4533287,3.83400026 35.1131215,3.57546555 C34.7901966,3.33006425 34.5435027,2.99030041 34.4310241,2.53868024 C34.2852519,1.9542116 34.3271437,1.5117209 34.6413378,0.9844446 C34.8775924,0.588471388 35.2156349,0.314010207 35.6037932,0.156405265 C35.9995038,-0.00426614135 36.4500164,-0.0421443719 36.8978317,0.0473898886 Z" id="ðŸ–-Ink"></path>
                        </g>
                        <g id="ACCESORIES" transform="translate(11.133635, 68.261023)" fill="#000000">
                            <path d="M93.3057185,23.3873768 C89.3273334,25.2997379 83.7769985,22.4790846 81.1020329,19.5245555 C80.1283783,18.4487863 79.3771294,15.3709644 79.7516935,13.4189168 C80.7661711,8.1324078 84.5780832,4.95960284 88.6023279,3.87616086 C94.1807618,2.3738938 99.794717,6.17956646 99.1402238,10.670493 C98.5196615,14.92674 97.5794075,21.1006395 93.3057185,23.3873768 M66.2270928,13.2323901 C65.9081964,18.9935499 61.2726673,24.0361191 55.7324056,25.5301843 C46.8059571,28.0161479 42.3944242,21.7533505 40.3962188,15.0063776 C40.1976707,14.33594 39.7308573,12.289703 40.9833805,10.5345005 C45.909442,3.63036901 57.8946982,4.80720661 63.8808317,6.70263478 C65.6330389,8.37502472 66.3492966,10.7887588 66.2270928,13.2323901 M97.628183,3.29567936 C97.6255322,3.29911886 97.6223512,3.30202921 97.6197003,3.3054687 C97.5992888,3.29303359 97.5791424,3.28033391 97.5582008,3.26816338 C97.5812631,3.27768814 97.6056509,3.28589002 97.628183,3.29567936 M105.096668,3.96161916 C104.578163,-1.90404844 86.1381043,0.341943995 83.9821737,0.822680036 C78.0983627,2.54983737 73.0164317,7.24872129 66.4380999,5.18317024 C59.6219874,-2.40039451 36.6686035,-0.225573236 31.8567934,3.63751259 C30.9459637,3.28086306 29.8384416,3.47215209 28.6649134,3.80869377 C22.6384871,3.59147622 -4.87302133,5.66496458 0.754188067,13.3416604 C1.60828966,13.9329895 2.46159601,13.3313419 2.48518851,12.1132303 C31.8202117,1.54418096 28.9766525,11.443851 32.4556188,10.2876504 C32.9868477,10.4403112 33.541139,10.5368817 34.0259782,10.6384792 C36.7187044,11.5031162 37.6329801,11.2358936 37.9876629,14.2528629 C40.4245829,37.5491145 71.5070418,29.5086256 68.9577261,10.399831 C71.4818587,10.2611927 73.6897458,9.17193004 76.3588796,10.2355288 C78.2120839,28.2365403 92.7257141,28.9630682 97.093508,22.7230245 C100.38718,18.3919023 99.08111,11.8557971 103.608485,8.44857707 C105.395683,9.94131936 105.51073,4.90324798 105.096668,3.96161916" id="ðŸ–-Ink"></path>
                        </g>
                    </g>
                </g>
            </g>
        </g>
    </g>
</svg>